<svg width="160px" height="112px" viewBox="0 0 93 75" style="background-color: #ffffffff" xmlns="http://www.w3.org/2000/svg" xmlns:xlink="http://www.w3.org/1999/xlink" version="1.1" >
<text x="0" y="0" stroke="transparent" fill="#000000" transform="matrix(0.05 0 0 0.05 38.7242 46.3403)" style="font:normal normal normal 200px 'Arial'" >
Re</text>
<text x="0" y="0" stroke="transparent" fill="#000000" transform="matrix(0.05 0 0 0.05 20.4075 39.257)" style="font:normal normal normal 200px 'Arial'" >
N</text>
<path stroke="transparent" fill="#000000" transform="matrix(0.05 0 0 0.05 -163 -163)" d="M 3846.73,4019.32 L 3851.51,4005.1 L 4002.94,4055.94 L 3998.16,4070.16 L 3846.73,4019.32 Z " />
<text x="0" y="0" stroke="transparent" fill="#000000" transform="matrix(0.05 0 0 0.05 20.4075 56.257)" style="font:normal normal normal 200px 'Arial'" >
N</text>
<path stroke="transparent" fill="#000000" transform="matrix(0.05 0 0 0.05 -163 -163)" d="M 3853.7,4270.71 L 3847.32,4257.14 L 4004.1,4183.44 L 4010.48,4197.02 L 3853.7,4270.71 Z " />
<text x="0" y="0" stroke="transparent" fill="#000000" transform="matrix(0.05 0 0 0.05 38.6108 26.8472)" style="font:normal normal normal 200px 'Arial'" >
O</text>
<path stroke="transparent" fill="#000000" transform="matrix(0.05 0 0 0.05 -163 -163)" d="M 4154.62,4003.65 L 4139.76,4005.64 L 4117.33,3838.49 L 4132.19,3836.49 L 4154.62,4003.65 Z " />
<text x="0" y="0" stroke="transparent" fill="#000000" transform="matrix(0.05 0 0 0.05 41.5049 63.3403)" style="font:normal normal normal 200px 'Arial'" >
NPh</text>
<path stroke="transparent" fill="#000000" transform="matrix(0.05 0 0 0.05 -163 -163)" d="M 4154.82,4228.97 L 4169.82,4228.97 L 4169.82,4342.97 L 4154.82,4342.97 L 4154.82,4228.97 Z " />
<path stroke="#000000" stroke-width="15" fill="transparent" transform="matrix(0.05 0 0 0.05 -163 -163)" d="M 3630,3920.43 C 3511.39,3920.43 3415.11,4015.77 3415.11,4133.23 C 3415.11,4245.8 3516.33,4346.04 3630,4346.04 " />
<text x="0" y="0" stroke="transparent" fill="#000000" transform="matrix(0.05 0 0 0.05 33.875 11)" style="font:normal normal bold 200px 'Arial'" >
TS1</text>
<text x="0" y="0" stroke="transparent" fill="#000000" transform="matrix(0.05 0 0 0.05 55.0142 30.9722)" style="font:normal normal normal 200px 'Arial'" >
C</text>
<path stroke="transparent" fill="#000000" transform="matrix(0.05 0 0 0.05 -163 -163)" d="M 4366.29,3898.94 L 4378.9,3907.06 L 4347.26,3956.19 L 4334.65,3948.07 L 4366.29,3898.94 Z " />
<path stroke="transparent" fill="#000000" transform="matrix(0.05 0 0 0.05 -163 -163)" d="M 4303,3997.2 L 4315.62,4005.32 L 4283.97,4054.45 L 4271.36,4046.33 L 4303,3997.2 Z " />
<text x="0" y="0" stroke="transparent" fill="#ff0000" transform="matrix(0.05 0 0 0.05 60.6683 54.8403)" style="font:normal normal normal 200px 'Arial'" >
L</text>
<text x="0" y="0" stroke="transparent" fill="#ff0000" transform="matrix(0.05 0 0 0.05 66.2298 56.4514)" style="font:normal normal normal 150px 'Arial'" >
1</text>
<path stroke="transparent" fill="#000000" transform="matrix(0.05 0 0 0.05 -163 -163)" d="M 4434.67,4224.25 L 4427.17,4237.24 L 4318.6,4174.56 L 4326.1,4161.57 L 4434.67,4224.25 Z " />
<path stroke="transparent" fill="#000000" transform="matrix(0.05 0 0 0.05 -163 -163)" d="M 4332.03,3776.56 L 4328.31,3791.09 L 4290.21,3781.34 L 4293.93,3766.81 L 4332.03,3776.56 Z " />
<path stroke="transparent" fill="#000000" transform="matrix(0.05 0 0 0.05 -163 -163)" d="M 4255.83,3757.06 L 4252.11,3771.6 L 4214.01,3761.85 L 4217.73,3747.32 L 4255.83,3757.06 Z " />
<text x="0" y="0" stroke="transparent" fill="#000000" transform="matrix(0.05 0 0 0.05 71.1566 26.5723)" style="font:normal normal normal 200px 'Arial'" >
O</text>
<path stroke="transparent" fill="#000000" transform="matrix(0.05 0 0 0.05 -163 -163)" d="M 4645.34,3713.53 L 4649.22,3728.01 L 4531.72,3759.5 L 4527.83,3745.01 L 4645.34,3713.53 Z " />
<path stroke="transparent" fill="#000000" transform="matrix(0.05 0 0 0.05 -163 -163)" d="M 4661.18,3772.64 L 4665.06,3787.13 L 4547.56,3818.61 L 4543.67,3804.13 L 4661.18,3772.64 Z " />
<path stroke="#000000" stroke-width="15" fill="transparent" transform="matrix(0.05 0 0 0.05 -163 -163)" d="M 4857.55,3532.5 L 4942.5,3532.5 " />
<path stroke="#000000" stroke-width="15" fill="transparent" transform="matrix(0.05 0 0 0.05 -163 -163)" d="M 4942.5,3532.5 L 4942.5,4702.5 " />
<path stroke="#000000" stroke-width="15" fill="transparent" transform="matrix(0.05 0 0 0.05 -163 -163)" d="M 4942.5,4702.5 L 4857.55,4702.5 " />
<path stroke="#000000" stroke-width="15" fill="transparent" transform="matrix(0.05 0 0 0.05 -163 -163)" d="M 3407.45,4702.5 L 3322.5,4702.5 " />
<path stroke="#000000" stroke-width="15" fill="transparent" transform="matrix(0.05 0 0 0.05 -163 -163)" d="M 3322.5,4702.5 L 3322.5,3532.5 " />
<path stroke="#000000" stroke-width="15" fill="transparent" transform="matrix(0.05 0 0 0.05 -163 -163)" d="M 3322.5,3532.5 L 3407.45,3532.5 " />
<path stroke="#000000" stroke-width="15" fill="transparent" transform="matrix(0.05 0 0 0.05 -163 -163)" d="M 4176.37,3411.92 L 4176.37,3412.5 " />
<path stroke="#000000" stroke-width="15" fill="transparent" transform="matrix(0.05 0 0 0.05 -163 -163)" d="M 4176.37,3412.5 L 4176.37,3412.5 " />
<path stroke="#000000" stroke-width="15" fill="transparent" transform="matrix(0.05 0 0 0.05 -163 -163)" d="M 4176.37,3412.5 L 4176.37,3411.92 " />
<path stroke="transparent" fill="#000000" transform="matrix(0.05 0 0 0.05 -163 -163)" d="M 5023.5,3480 L 5023.5,3615 L 5011.5,3615 L 5011.5,3480 Z " />
<path stroke="transparent" fill="#000000" transform="matrix(0.05 0 0 0.05 -163 -163)" d="M 4980,3511.5 L 5055,3511.5 L 5055,3523.5 L 4980,3523.5 Z " />
<path stroke="transparent" fill="#000000" transform="matrix(0.05 0 0 0.05 -163 -163)" d="M 4980,3571.5 L 5055,3571.5 L 5055,3583.5 L 4980,3583.5 Z " />
</svg>
