<svg width="100%" height="100%" viewBox="0 0 373 168" style="background-color: #ffffffff" xmlns="http://www.w3.org/2000/svg" xmlns:xlink="http://www.w3.org/1999/xlink" version="1.1" >
  <text x="0" y="0" stroke="transparent" fill="#408080" transform="matrix(0.05 0 0 0.05 320.776 50.8503)" style="font:normal normal bold 200px 'Arial'" >
    Re</text>
  <text x="0" y="0" stroke="transparent" fill="#0000ff" transform="matrix(0.05 0 0 0.05 305.686 44.8503)" style="font:normal normal bold 200px 'Arial'" >
    N</text>
  <path stroke="transparent" fill="#000000" transform="matrix(0.05 0 0 0.05 -638 -169)" d="M 19042.2,4246.2 L 19046,4234.83 L 19150.2,4269.81 L 19146.4,4281.18 L 19042.2,4246.2 Z " />
  <text x="0" y="0" stroke="transparent" fill="#0000ff" transform="matrix(0.05 0 0 0.05 305.686 59.2503)" style="font:normal normal bold 200px 'Arial'" >
    N</text>
  <path stroke="transparent" fill="#000000" transform="matrix(0.05 0 0 0.05 -638 -169)" d="M 19049.1,4453.71 L 19044,4442.85 L 19152.2,4391.98 L 19157.3,4402.84 L 19049.1,4453.71 Z " />
  <path stroke="transparent" fill="#000000" transform="matrix(0.05 0 0 0.05 -638 -169)" d="M 18661.3,4213.56 L 18658.9,4207.56 L 18661.4,4201.56 L 18855.7,4201.56 L 18855.7,4213.56 L 18661.3,4213.56 Z " />
  <path stroke="transparent" fill="#000000" transform="matrix(0.05 0 0 0.05 -638 -169)" d="M 18679.3,4265.22 L 18679.3,4253.22 L 18855.7,4253.22 L 18855.7,4265.22 L 18679.3,4265.22 Z " />
  <path stroke="transparent" fill="#000000" transform="matrix(0.05 0 0 0.05 -638 -169)" d="M 18660.4,4501.56 L 18657.9,4495.56 L 18660.3,4489.56 L 18855.7,4489.56 L 18855.7,4501.56 L 18660.4,4501.56 Z " />
  <path stroke="transparent" fill="#000000" transform="matrix(0.05 0 0 0.05 -638 -169)" d="M 18495.7,4351.55 L 18513.3,4351.58 L 18660.3,4489.56 L 18657.9,4495.56 L 18649.3,4495.7 L 18495.7,4351.55 Z " />
  <path stroke="transparent" fill="#000000" transform="matrix(0.05 0 0 0.05 -638 -169)" d="M 18555.8,4356.03 L 18564.1,4347.28 L 18677,4453.31 L 18668.8,4462.06 L 18555.8,4356.03 Z " />
  <path stroke="transparent" fill="#000000" transform="matrix(0.05 0 0 0.05 -638 -169)" d="M 18650.3,4207.42 L 18658.9,4207.56 L 18661.3,4213.56 L 18513.3,4351.58 L 18495.7,4351.55 L 18650.3,4207.42 Z " />
  <path stroke="transparent" fill="#000000" transform="matrix(0.05 0 0 0.05 -638 -169)" d="M 18450.1,4008.17 L 18458.5,3999.66 L 18661.4,4201.56 L 18658.9,4207.56 L 18650.3,4207.42 L 18450.1,4008.17 Z " />
  <path stroke="transparent" fill="#000000" transform="matrix(0.05 0 0 0.05 -638 -169)" d="M 18458.5,4703.45 L 18450,4694.97 L 18649.3,4495.7 L 18657.9,4495.56 L 18660.4,4501.56 L 18458.5,4703.45 Z " />
  <text x="0" y="0" stroke="transparent" fill="#000000" transform="matrix(0.05 0 0 0.05 309.689 30.941)" style="font:normal normal normal 200px 'Arial'" >
    Ph</text>
  <path stroke="transparent" fill="#000000" transform="matrix(0.05 0 0 0.05 -638 -169)" d="M 18985.8,4035.67 L 18997.4,4038.78 L 18982.3,4094.85 L 18970.8,4091.75 L 18985.8,4035.67 Z " />
  <text x="0" y="0" stroke="transparent" fill="#000000" transform="matrix(0.05 0 0 0.05 309.689 73.1596)" style="font:normal normal normal 200px 'Arial'" >
    Ph</text>
  <path stroke="transparent" fill="#000000" transform="matrix(0.05 0 0 0.05 -638 -169)" d="M 18995.9,4658.96 L 18984.3,4662.06 L 18969.3,4605.98 L 18980.9,4602.88 L 18995.9,4658.96 Z " />
  <text x="0" y="0" stroke="transparent" fill="#ff0000" transform="matrix(0.05 0 0 0.05 334.769 36.3598)" style="font:normal normal bold 200px 'Arial'" >
    O</text>
  <path stroke="transparent" fill="#000000" transform="matrix(0.05 0 0 0.05 -638 -169)" d="M 19402,4266.37 L 19392.6,4258.92 L 19489,4137.31 L 19498.4,4144.77 L 19402,4266.37 Z " />
  <path stroke="transparent" fill="#000000" transform="matrix(0.05 0 0 0.05 -638 -169)" d="M 19349.8,4225.01 L 19340.4,4217.55 L 19436.9,4095.95 L 19446.3,4103.4 L 19349.8,4225.01 Z " />
  <text x="0" y="0" stroke="transparent" fill="#0000ff" transform="matrix(0.05 0 0 0.05 339.627 64.0503)" style="font:normal normal bold 200px 'Arial'" >
    N</text>
  <text x="0" y="0" stroke="transparent" fill="#000000" transform="matrix(0.05 0 0 0.05 346.849 64.0503)" style="font:normal normal normal 200px 'Arial'" >
    Ph</text>
  <path stroke="transparent" fill="#000000" transform="matrix(0.05 0 0 0.05 -638 -169)" d="M 19556.8,4479.57 L 19549.2,4488.84 L 19441.1,4400.02 L 19448.7,4390.75 L 19556.8,4479.57 Z " />
  <path stroke="transparent" fill="#000000" transform="matrix(0.05 0 0 0.05 -638 -169)" d="M 19509.3,4537.42 L 19501.7,4546.7 L 19393.6,4457.87 L 19401.2,4448.6 L 19509.3,4537.42 Z " />
  <text x="0" y="0" stroke="transparent" fill="#408080" transform="matrix(0.05 0 0 0.05 144.975 50.2003)" style="font:normal normal bold 200px 'Arial'" >
    Re</text>
  <text x="0" y="0" stroke="transparent" fill="#0000ff" transform="matrix(0.05 0 0 0.05 129.885 44.2003)" style="font:normal normal bold 200px 'Arial'" >
    N</text>
  <path stroke="transparent" fill="#000000" transform="matrix(0.05 0 0 0.05 -638 -169)" d="M 15526.2,4233.2 L 15530,4221.83 L 15634.2,4256.81 L 15630.4,4268.18 L 15526.2,4233.2 Z " />
  <text x="0" y="0" stroke="transparent" fill="#0000ff" transform="matrix(0.05 0 0 0.05 129.885 58.6003)" style="font:normal normal bold 200px 'Arial'" >
    N</text>
  <path stroke="transparent" fill="#000000" transform="matrix(0.05 0 0 0.05 -638 -169)" d="M 15533.1,4440.71 L 15528,4429.85 L 15636.2,4378.98 L 15641.3,4389.84 L 15533.1,4440.71 Z " />
  <path stroke="transparent" fill="#000000" transform="matrix(0.05 0 0 0.05 -638 -169)" d="M 15144.3,4200.56 L 15141.9,4194.56 L 15144.4,4188.56 L 15339.7,4188.56 L 15339.7,4200.56 L 15144.3,4200.56 Z " />
  <path stroke="transparent" fill="#000000" transform="matrix(0.05 0 0 0.05 -638 -169)" d="M 15162.4,4252.4 L 15162.4,4240.4 L 15339.7,4240.4 L 15339.7,4252.4 L 15162.4,4252.4 Z " />
  <path stroke="transparent" fill="#000000" transform="matrix(0.05 0 0 0.05 -638 -169)" d="M 15144.4,4488.56 L 15141.9,4482.56 L 15144.3,4476.56 L 15339.7,4476.56 L 15339.7,4488.56 L 15144.4,4488.56 Z " />
  <path stroke="transparent" fill="#000000" transform="matrix(0.05 0 0 0.05 -638 -169)" d="M 14979.7,4338.56 L 14997.3,4338.56 L 15144.3,4476.56 L 15141.9,4482.56 L 15133.3,4482.7 L 14979.7,4338.56 Z " />
  <path stroke="transparent" fill="#000000" transform="matrix(0.05 0 0 0.05 -638 -169)" d="M 15039.7,4342.94 L 15048,4334.19 L 15161,4440.31 L 15152.8,4449.06 L 15039.7,4342.94 Z " />
  <path stroke="transparent" fill="#000000" transform="matrix(0.05 0 0 0.05 -638 -169)" d="M 15133.3,4194.42 L 15141.9,4194.56 L 15144.3,4200.56 L 14997.3,4338.56 L 14979.7,4338.56 L 15133.3,4194.42 Z " />
  <path stroke="transparent" fill="#000000" transform="matrix(0.05 0 0 0.05 -638 -169)" d="M 14934,3995.16 L 14942.5,3986.67 L 15144.4,4188.56 L 15141.9,4194.56 L 15133.3,4194.42 L 14934,3995.16 Z " />
  <path stroke="transparent" fill="#000000" transform="matrix(0.05 0 0 0.05 -638 -169)" d="M 14942.5,4690.45 L 14934,4681.96 L 15133.3,4482.7 L 15141.9,4482.56 L 15144.4,4488.56 L 14942.5,4690.45 Z " />
  <text x="0" y="0" stroke="transparent" fill="#000000" transform="matrix(0.05 0 0 0.05 133.888 30.2909)" style="font:normal normal normal 200px 'Arial'" >
    Ph</text>
  <path stroke="transparent" fill="#000000" transform="matrix(0.05 0 0 0.05 -638 -169)" d="M 15469.8,4022.67 L 15481.4,4025.78 L 15466.3,4081.85 L 15454.7,4078.75 L 15469.8,4022.67 Z " />
  <text x="0" y="0" stroke="transparent" fill="#000000" transform="matrix(0.05 0 0 0.05 133.888 72.5096)" style="font:normal normal normal 200px 'Arial'" >
    Ph</text>
  <path stroke="transparent" fill="#000000" transform="matrix(0.05 0 0 0.05 -638 -169)" d="M 15479.9,4645.95 L 15468.3,4649.06 L 15453.3,4592.98 L 15464.9,4589.88 L 15479.9,4645.95 Z " />
  <text x="0" y="0" stroke="transparent" fill="#ff0000" transform="matrix(0.05 0 0 0.05 147.478 32.8002)" style="font:normal normal bold 200px 'Arial'" >
    O</text>
  <path stroke="transparent" fill="#000000" transform="matrix(0.05 0 0 0.05 -638 -169)" d="M 15824.7,4208.17 L 15812.7,4208.17 L 15812.7,4070.17 L 15824.7,4070.17 L 15824.7,4208.17 Z " />
  <path stroke="transparent" fill="#000000" transform="matrix(0.05 0 0 0.05 -638 -169)" d="M 15762,4208.17 L 15750,4208.17 L 15750,4070.17 L 15762,4070.17 L 15762,4208.17 Z " />
  <text x="0" y="0" stroke="transparent" fill="#000000" transform="matrix(0.05 0 0 0.05 163.806 42.4721)" style="font:normal normal bold 200px 'Arial'" >
    Cl</text>
  <path stroke="transparent" fill="#000000" transform="matrix(0.05 0 0 0.05 -638 -169)" d="M 16017,4197.33 L 16022.2,4208.14 L 15915.9,4259.33 L 15910.7,4248.52 L 16017,4197.33 Z " />
  <text x="0" y="0" stroke="transparent" fill="#000000" transform="matrix(0.05 0 0 0.05 164.806 60.9721)" style="font:normal normal bold 200px 'Arial'" >
    Cl</text>
  <path stroke="transparent" fill="#000000" transform="matrix(0.05 0 0 0.05 -638 -169)" d="M 16045.3,4470.45 L 16038.9,4480.6 L 15915.1,4402.38 L 15921.5,4392.24 L 16045.3,4470.45 Z " />
  <text x="0" y="0" stroke="transparent" fill="#408080" transform="matrix(0.05 0 0 0.05 34.4984 95.9999)" style="font:normal normal bold 233.333px 'Arial'" >
    Re</text>
  <text x="0" y="0" stroke="transparent" fill="#000000" transform="matrix(0.05 0 0 0.05 49.4122 95.9999)" style="font:normal normal normal 233.333px 'Arial'" >
    -</text>
  <text x="0" y="0" stroke="transparent" fill="#ff0000" transform="matrix(0.05 0 0 0.05 53.2973 95.9999)" style="font:normal normal bold 233.333px 'Arial'" >
    O</text>
  <text x="0" y="0" stroke="transparent" fill="#000000" transform="matrix(0.05 0 0 0.05 62.372 95.9999)" style="font:normal normal normal 233.333px 'Arial'" >
  </text>
  <text x="0" y="0" stroke="transparent" fill="#000000" transform="matrix(0.05 0 0 0.05 65.6134 95.9999)" style="font:normal normal normal 233.333px 'Arial'" >
    WBI </text>
  <text x="0" y="0" stroke="transparent" fill="#000000" transform="matrix(0.05 0 0 0.05 90.8893 95.9999)" style="font:normal normal normal 233.333px 'Arial'" >
    =</text>
  <text x="0" y="0" stroke="transparent" fill="#000000" transform="matrix(0.05 0 0 0.05 2.0448 109.287)" style="font:normal normal normal 233.333px 'Arial'" >
    # </text>
  <text x="0" y="0" stroke="transparent" fill="#000000" transform="matrix(0.05 0 0 0.05 11.7746 109.287)" style="font:normal normal normal 233.333px 'Arial'" >
    of </text>
  <text x="0" y="0" stroke="transparent" fill="#408080" transform="matrix(0.05 0 0 0.05 24.7458 109.287)" style="font:normal normal bold 233.333px 'Arial'" >
    Re</text>
  <text x="0" y="0" stroke="transparent" fill="#000000" transform="matrix(0.05 0 0 0.05 39.6596 109.287)" style="font:normal normal normal 233.333px 'Arial'" >
    -</text>
  <text x="0" y="0" stroke="transparent" fill="#ff0000" transform="matrix(0.05 0 0 0.05 43.5447 109.287)" style="font:normal normal bold 233.333px 'Arial'" >
    O</text>
  <text x="0" y="0" stroke="transparent" fill="#000000" transform="matrix(0.05 0 0 0.05 52.6194 109.287)" style="font:normal normal normal 233.333px 'Arial'" >
  </text>
  <text x="0" y="0" stroke="transparent" fill="#000000" transform="matrix(0.05 0 0 0.05 55.8607 109.287)" style="font:normal normal normal 233.333px 'Arial'" >
    bonds </text>
  <text x="0" y="0" stroke="transparent" fill="#000000" transform="matrix(0.05 0 0 0.05 90.8893 109.287)" style="font:normal normal normal 233.333px 'Arial'" >
    = </text>
  <text x="0" y="0" stroke="transparent" fill="#ff0000" transform="matrix(0.05 0 0 0.05 12.4297 122.574)" style="font:normal normal bold 233.333px 'Arial'" >
    O</text>
  <text x="0" y="0" stroke="transparent" fill="#000000" transform="matrix(0.05 0 0 0.05 21.5044 122.574)" style="font:normal normal normal 233.333px 'Arial'" >
  </text>
  <text x="0" y="0" stroke="transparent" fill="#000000" transform="matrix(0.05 0 0 0.05 24.7458 122.574)" style="font:normal normal normal 233.333px 'Arial'" >
    NPA </text>
  <text x="0" y="0" stroke="transparent" fill="#000000" transform="matrix(0.05 0 0 0.05 51.9757 122.574)" style="font:normal normal normal 233.333px 'Arial'" >
    charge </text>
  <text x="0" y="0" stroke="transparent" fill="#000000" transform="matrix(0.05 0 0 0.05 90.8893 122.574)" style="font:normal normal normal 233.333px 'Arial'" >
    = </text>
  <text x="0" y="0" stroke="transparent" fill="#408080" transform="matrix(0.05 0 0 0.05 6.5907 135.861)" style="font:normal normal bold 233.333px 'Arial'" >
    Re </text>
  <text x="0" y="0" stroke="transparent" fill="#000000" transform="matrix(0.05 0 0 0.05 24.7458 135.861)" style="font:normal normal normal 233.333px 'Arial'" >
    NPA </text>
  <text x="0" y="0" stroke="transparent" fill="#000000" transform="matrix(0.05 0 0 0.05 51.9757 135.861)" style="font:normal normal normal 233.333px 'Arial'" >
    charge </text>
  <text x="0" y="0" stroke="transparent" fill="#000000" transform="matrix(0.05 0 0 0.05 90.8893 135.861)" style="font:normal normal normal 233.333px 'Arial'" >
    =</text>
  <text x="0" y="0" stroke="transparent" fill="#0000ff" transform="matrix(0.05 0 0 0.05 7.25721 149.148)" style="font:normal normal bold 233.333px 'Arial'" >
    N</text>
  <text x="0" y="0" stroke="transparent" fill="#000000" transform="matrix(0.05 0 0 0.05 15.6825 149.148)" style="font:normal normal normal 233.333px 'Arial'" >
    (BDI) </text>
  <text x="0" y="0" stroke="transparent" fill="#000000" transform="matrix(0.05 0 0 0.05 46.1423 149.148)" style="font:normal normal normal 233.333px 'Arial'" >
    charges </text>
  <text x="0" y="0" stroke="transparent" fill="#000000" transform="matrix(0.05 0 0 0.05 90.8893 149.148)" style="font:normal normal normal 233.333px 'Arial'" >
    =</text>
  <text x="0" y="0" stroke="transparent" fill="#000000" transform="matrix(0.05 0 0 0.05 7.86675 162.435)" style="font:normal normal normal 233.333px 'Arial'" >
    Ligand </text>
  <text x="0" y="0" stroke="transparent" fill="#000000" transform="matrix(0.05 0 0 0.05 46.1423 162.435)" style="font:normal normal normal 233.333px 'Arial'" >
    charges </text>
  <text x="0" y="0" stroke="transparent" fill="#000000" transform="matrix(0.05 0 0 0.05 90.8893 162.435)" style="font:normal normal normal 233.333px 'Arial'" >
    =</text>
  <path stroke="transparent" fill="#000000" transform="matrix(0.05 0 0 0.05 -638 -169)" d="M 20168.3,4994 L 20168.3,5006 L 14768.3,5006 L 14768.3,4994 L 20168.3,4994 Z " />
  <text x="0" y="0" stroke="transparent" fill="#000000" transform="matrix(0.05 0 0 0.05 129.063 95.9999)" style="font:normal normal normal 233.333px 'Arial'" >
    1.88</text>
  <text x="0" y="0" stroke="transparent" fill="#000000" transform="matrix(0.05 0 0 0.05 137.172 109.287)" style="font:normal normal normal 233.333px 'Arial'" >
    3</text>
  <text x="0" y="0" stroke="transparent" fill="#000000" transform="matrix(0.05 0 0 0.05 127.121 122.574)" style="font:normal normal normal 233.333px 'Arial'" >
    -0.50</text>
  <text x="0" y="0" stroke="transparent" fill="#000000" transform="matrix(0.05 0 0 0.05 125.657 135.861)" style="font:normal normal normal 233.333px 'Arial'" >
    +1.49</text>
  <text x="0" y="0" stroke="transparent" fill="#000000" transform="matrix(0.05 0 0 0.05 110.583 149.148)" style="font:normal normal normal 233.333px 'Arial'" >
    -0.63, </text>
  <text x="0" y="0" stroke="transparent" fill="#000000" transform="matrix(0.05 0 0 0.05 143.658 149.148)" style="font:normal normal normal 233.333px 'Arial'" >
    -0.65</text>
  <text x="0" y="0" stroke="transparent" fill="#000000" transform="matrix(0.05 0 0 0.05 103.129 162.435)" style="font:normal normal normal 233.333px 'Arial'" >
    -0.39, </text>
  <text x="0" y="0" stroke="transparent" fill="#000000" transform="matrix(0.05 0 0 0.05 136.204 162.435)" style="font:normal normal normal 233.333px 'Arial'" >
    -0.43 </text>
  <text x="0" y="0" stroke="transparent" fill="#000000" transform="matrix(0.05 0 0 0.05 166.037 162.435)" style="font:normal normal bold 233.333px 'Arial'" >
    Cl</text>
  <text x="0" y="0" stroke="transparent" fill="#000000" transform="matrix(0.05 0 0 0.05 222.063 95.9999)" style="font:normal normal normal 233.333px 'Arial'" >
    1.70</text>
  <text x="0" y="0" stroke="transparent" fill="#000000" transform="matrix(0.05 0 0 0.05 230.172 109.287)" style="font:normal normal normal 233.333px 'Arial'" >
    3</text>
  <text x="0" y="0" stroke="transparent" fill="#000000" transform="matrix(0.05 0 0 0.05 220.121 122.574)" style="font:normal normal normal 233.333px 'Arial'" >
    -0.65</text>
  <text x="0" y="0" stroke="transparent" fill="#000000" transform="matrix(0.05 0 0 0.05 218.657 135.861)" style="font:normal normal normal 233.333px 'Arial'" >
    +1.36</text>
  <text x="0" y="0" stroke="transparent" fill="#000000" transform="matrix(0.05 0 0 0.05 203.583 149.148)" style="font:normal normal normal 233.333px 'Arial'" >
    -0.62, </text>
  <text x="0" y="0" stroke="transparent" fill="#000000" transform="matrix(0.05 0 0 0.05 236.658 149.148)" style="font:normal normal normal 233.333px 'Arial'" >
    -0.63</text>
  <text x="0" y="0" stroke="transparent" fill="#000000" transform="matrix(0.05 0 0 0.05 184.132 162.435)" style="font:normal normal normal 233.333px 'Arial'" >
    -0.44, </text>
  <text x="0" y="0" stroke="transparent" fill="#000000" transform="matrix(0.05 0 0 0.05 217.207 162.435)" style="font:normal normal normal 233.333px 'Arial'" >
    -0.46 </text>
  <text x="0" y="0" stroke="transparent" fill="#000000" transform="matrix(0.05 0 0 0.05 247.04 162.435)" style="font:normal normal normal 233.333px 'Arial'" >
    (olefin)</text>
  <text x="0" y="0" stroke="transparent" fill="#408080" transform="matrix(0.05 0 0 0.05 221.976 50.7003)" style="font:normal normal bold 200px 'Arial'" >
    Re</text>
  <text x="0" y="0" stroke="transparent" fill="#0000ff" transform="matrix(0.05 0 0 0.05 206.886 44.7003)" style="font:normal normal bold 200px 'Arial'" >
    N</text>
  <path stroke="transparent" fill="#000000" transform="matrix(0.05 0 0 0.05 -638 -169)" d="M 17066.2,4243.2 L 17070,4231.83 L 17174.2,4266.81 L 17170.4,4278.18 L 17066.2,4243.2 Z " />
  <text x="0" y="0" stroke="transparent" fill="#0000ff" transform="matrix(0.05 0 0 0.05 206.886 59.1003)" style="font:normal normal bold 200px 'Arial'" >
    N</text>
  <path stroke="transparent" fill="#000000" transform="matrix(0.05 0 0 0.05 -638 -169)" d="M 17073.1,4450.71 L 17068,4439.85 L 17176.2,4388.98 L 17181.3,4399.84 L 17073.1,4450.71 Z " />
  <path stroke="transparent" fill="#000000" transform="matrix(0.05 0 0 0.05 -638 -169)" d="M 16684.3,4210.56 L 16681.9,4204.56 L 16684.4,4198.56 L 16879.7,4198.56 L 16879.7,4210.56 L 16684.3,4210.56 Z " />
  <path stroke="transparent" fill="#000000" transform="matrix(0.05 0 0 0.05 -638 -169)" d="M 16702.4,4262.4 L 16702.4,4250.4 L 16879.7,4250.4 L 16879.7,4262.4 L 16702.4,4262.4 Z " />
  <path stroke="transparent" fill="#000000" transform="matrix(0.05 0 0 0.05 -638 -169)" d="M 16684.4,4498.56 L 16681.9,4492.56 L 16684.3,4486.56 L 16879.7,4486.56 L 16879.7,4498.56 L 16684.4,4498.56 Z " />
  <path stroke="transparent" fill="#000000" transform="matrix(0.05 0 0 0.05 -638 -169)" d="M 16519.7,4348.56 L 16537.3,4348.56 L 16684.3,4486.56 L 16681.9,4492.56 L 16673.3,4492.7 L 16519.7,4348.56 Z " />
  <path stroke="transparent" fill="#000000" transform="matrix(0.05 0 0 0.05 -638 -169)" d="M 16579.7,4352.94 L 16588,4344.19 L 16701,4450.31 L 16692.8,4459.06 L 16579.7,4352.94 Z " />
  <path stroke="transparent" fill="#000000" transform="matrix(0.05 0 0 0.05 -638 -169)" d="M 16673.3,4204.42 L 16681.9,4204.56 L 16684.3,4210.56 L 16537.3,4348.56 L 16519.7,4348.56 L 16673.3,4204.42 Z " />
  <path stroke="transparent" fill="#000000" transform="matrix(0.05 0 0 0.05 -638 -169)" d="M 16474,4005.16 L 16482.5,3996.67 L 16684.4,4198.56 L 16681.9,4204.56 L 16673.3,4204.42 L 16474,4005.16 Z " />
  <path stroke="transparent" fill="#000000" transform="matrix(0.05 0 0 0.05 -638 -169)" d="M 16482.5,4700.45 L 16474,4691.96 L 16673.3,4492.7 L 16681.9,4492.56 L 16684.4,4498.56 L 16482.5,4700.45 Z " />
  <text x="0" y="0" stroke="transparent" fill="#000000" transform="matrix(0.05 0 0 0.05 210.888 30.7909)" style="font:normal normal normal 200px 'Arial'" >
    Ph</text>
  <path stroke="transparent" fill="#000000" transform="matrix(0.05 0 0 0.05 -638 -169)" d="M 17009.8,4032.67 L 17021.4,4035.78 L 17006.3,4091.85 L 16994.7,4088.75 L 17009.8,4032.67 Z " />
  <text x="0" y="0" stroke="transparent" fill="#000000" transform="matrix(0.05 0 0 0.05 210.888 73.0096)" style="font:normal normal normal 200px 'Arial'" >
    Ph</text>
  <path stroke="transparent" fill="#000000" transform="matrix(0.05 0 0 0.05 -638 -169)" d="M 17019.9,4655.95 L 17008.3,4659.06 L 16993.3,4602.98 L 17004.9,4599.88 L 17019.9,4655.95 Z " />
  <text x="0" y="0" stroke="transparent" fill="#ff0000" transform="matrix(0.05 0 0 0.05 224.478 33.3002)" style="font:normal normal bold 200px 'Arial'" >
    O</text>
  <path stroke="transparent" fill="#000000" transform="matrix(0.05 0 0 0.05 -638 -169)" d="M 17364.7,4218.17 L 17352.7,4218.17 L 17352.7,4080.17 L 17364.7,4080.17 L 17364.7,4218.17 Z " />
  <path stroke="transparent" fill="#000000" transform="matrix(0.05 0 0 0.05 -638 -169)" d="M 17302,4218.17 L 17290,4218.17 L 17290,4080.17 L 17302,4080.17 L 17302,4218.17 Z " />
  <path stroke="transparent" fill="#000000" transform="matrix(0.05 0 0 0.05 -638 -169)" d="M 17944.8,4667.5 L 17949.2,4681.68 L 17654.7,4580.82 L 17666.8,4572.3 L 17944.8,4667.5 Z " />
  <path stroke="transparent" fill="#000000" transform="matrix(0.05 0 0 0.05 -638 -169)" d="M 18121.2,4432.59 L 18136.2,4432.67 L 17949.2,4681.68 L 17944.8,4667.5 L 18121.2,4432.59 Z " />
  <path stroke="transparent" fill="#000000" transform="matrix(0.05 0 0 0.05 -638 -169)" d="M 18056.1,4428.66 L 18065.7,4435.86 L 17932,4613.85 L 17922.4,4606.64 L 18056.1,4428.66 Z " />
  <path stroke="transparent" fill="#000000" transform="matrix(0.05 0 0 0.05 -638 -169)" d="M 17944.7,4192.09 L 17947,4185.07 L 17957.8,4189.64 L 18136.2,4432.67 L 18121.2,4432.59 L 17944.7,4192.09 Z " />
  <path stroke="transparent" fill="#000000" transform="matrix(0.05 0 0 0.05 -638 -169)" d="M 17671.5,4278.44 L 17659.6,4269.6 L 17942.3,4180.28 L 17947,4185.07 L 17944.7,4192.09 L 17671.5,4278.44 Z " />
  <path stroke="transparent" fill="#000000" transform="matrix(0.05 0 0 0.05 -638 -169)" d="M 18035.7,3894.22 L 18042.4,3893.17 L 18047.1,3897.94 L 17956.7,4174.61 L 17947,4185.07 L 17942.3,4180.28 L 18035.7,3894.22 Z " />
  <path stroke="transparent" fill="#000000" transform="matrix(0.05 0 0 0.05 -638 -169)" d="M 18310.5,3800.48 L 18322.5,3809.22 L 18047.1,3897.94 L 18042.4,3893.17 L 18044.7,3886.13 L 18310.5,3800.48 Z " />
  <path stroke="transparent" fill="#000000" transform="matrix(0.05 0 0 0.05 -638 -169)" d="M 18262.8,3761.38 L 18266.5,3772.8 L 18064.1,3838.03 L 18060.4,3826.61 L 18262.8,3761.38 Z " />
  <path stroke="transparent" fill="#000000" transform="matrix(0.05 0 0 0.05 -638 -169)" d="M 18310.5,3521.2 L 18322.5,3512.5 L 18322.5,3809.22 L 18310.5,3800.48 L 18310.5,3521.2 Z " />
  <path stroke="transparent" fill="#000000" transform="matrix(0.05 0 0 0.05 -638 -169)" d="M 18044.7,3434.24 L 18040.1,3420.12 L 18322.5,3512.5 L 18310.5,3521.2 L 18044.7,3434.24 Z " />
  <path stroke="transparent" fill="#000000" transform="matrix(0.05 0 0 0.05 -638 -169)" d="M 18060.2,3493.95 L 18063.9,3482.54 L 18266.5,3548.79 L 18262.7,3560.19 L 18060.2,3493.95 Z " />
  <path stroke="transparent" fill="#000000" transform="matrix(0.05 0 0 0.05 -638 -169)" d="M 17880,3659.77 L 17865.1,3659.75 L 18040.1,3420.12 L 18044.7,3434.24 L 17880,3659.77 Z " />
  <path stroke="transparent" fill="#000000" transform="matrix(0.05 0 0 0.05 -638 -169)" d="M 18044.7,3886.13 L 18042.4,3893.17 L 18035.7,3894.22 L 17865.1,3659.75 L 17880,3659.77 L 18044.7,3886.13 Z " />
  <text x="0" y="0" stroke="transparent" fill="#000000" transform="matrix(0.05 0 0 0.05 235.838 77.359)" style="font:normal normal normal 200px 'Arial'" >
    H</text>
  <path stroke="transparent" fill="#000000" transform="matrix(0.05 0 0 0.05 -638 -169)" d="M 17621.8,4755.7 L 17566.1,4733.53 L 17572.6,4723.19 L 17624.2,4743.73 L 17621.8,4755.7 Z " />
  <path stroke="transparent" fill="#000000" transform="matrix(0.05 0 0 0.05 -638 -169)" d="M 17633.6,4696.56 L 17598.1,4682.45 L 17604.6,4672.11 L 17636,4684.59 L 17633.6,4696.56 Z " />
  <path stroke="transparent" fill="#000000" transform="matrix(0.05 0 0 0.05 -638 -169)" d="M 17645.4,4637.42 L 17630.1,4631.36 L 17636.6,4621.03 L 17647.8,4625.46 L 17645.4,4637.42 Z " />
  <text x="0" y="0" stroke="transparent" fill="#000000" transform="matrix(0.05 0 0 0.05 236.826 33.8393)" style="font:normal normal normal 200px 'Arial'" >
    H</text>
  <path stroke="transparent" fill="#000000" transform="matrix(0.05 0 0 0.05 -638 -169)" d="M 17577.1,4105.75 L 17633.9,4086.56 L 17635.8,4098.6 L 17582.9,4116.45 L 17577.1,4105.75 Z " />
  <path stroke="transparent" fill="#000000" transform="matrix(0.05 0 0 0.05 -638 -169)" d="M 17607.5,4161.72 L 17643.6,4149.53 L 17645.5,4161.57 L 17613.3,4172.42 L 17607.5,4161.72 Z " />
  <path stroke="transparent" fill="#000000" transform="matrix(0.05 0 0 0.05 -638 -169)" d="M 17638,4217.68 L 17653.3,4212.51 L 17655.2,4224.54 L 17643.8,4228.38 L 17638,4217.68 Z " />
  <path stroke="transparent" fill="#000000" transform="matrix(0.05 0 0 0.05 -638 -169)" d="M 17659.6,4269.6 L 17671.5,4278.44 L 17669.8,4381.33 L 17657.9,4377.97 L 17659.6,4269.6 L 17659.6,4269.6 Z " />
  <path stroke="transparent" fill="#000000" transform="matrix(0.05 0 0 0.05 -638 -169)" d="M 17666.8,4572.3 L 17654.7,4580.82 L 17656.6,4456.56 L 17668.6,4459.92 L 17666.8,4572.3 L 17666.8,4572.3 Z " />
  <path stroke="transparent" fill="#000000" transform="matrix(0.05 0 0 0.05 -638 -169)" d="M 17713.4,4314.03 L 17725.4,4314.22 L 17724.1,4396.57 L 17712.1,4393.21 L 17713.4,4314.03 L 17713.4,4314.03 Z " />
  <path stroke="transparent" fill="#000000" transform="matrix(0.05 0 0 0.05 -638 -169)" d="M 17721.8,4537.95 L 17709.8,4537.76 L 17710.9,4471.76 L 17723.6,4426.51 L 17721.8,4537.95 L 17721.8,4537.95 Z " />
  <text x="0" y="0" stroke="transparent" fill="#000000" transform="matrix(0.05 0 0 0.05 269.649 39.9987)" style="font:normal normal normal 200px 'Arial'" >
    H</text>
  <path stroke="transparent" fill="#000000" transform="matrix(0.05 0 0 0.05 -638 -169)" d="M 18116.5,4108.6 L 18132,4166.55 L 17957.8,4189.64 L 17947,4185.07 L 17956.7,4174.61 L 18116.5,4108.6 Z " />
  <path stroke="transparent" fill="#000000" transform="matrix(0.05 0 0 0.05 -638 -169)" d="M 17476.5,4372.7 L 17479.7,4361.15 L 17692,4420.78 L 17688.7,4432.34 L 17476.5,4372.7 Z " />
  <text x="0" y="0" stroke="transparent" fill="#000000" transform="matrix(0.05 0 0 0.05 315.563 95.9999)" style="font:normal normal normal 233.333px 'Arial'" >
    1.60</text>
  <text x="0" y="0" stroke="transparent" fill="#000000" transform="matrix(0.05 0 0 0.05 323.673 109.287)" style="font:normal normal normal 233.333px 'Arial'" >
    2</text>
  <text x="0" y="0" stroke="transparent" fill="#000000" transform="matrix(0.05 0 0 0.05 313.621 122.574)" style="font:normal normal normal 233.333px 'Arial'" >
    -0.70</text>
  <text x="0" y="0" stroke="transparent" fill="#000000" transform="matrix(0.05 0 0 0.05 312.157 135.861)" style="font:normal normal normal 233.333px 'Arial'" >
    +1.53</text>
  <text x="0" y="0" stroke="transparent" fill="#000000" transform="matrix(0.05 0 0 0.05 297.084 149.148)" style="font:normal normal normal 233.333px 'Arial'" >
    -0.65, </text>
  <text x="0" y="0" stroke="transparent" fill="#000000" transform="matrix(0.05 0 0 0.05 330.158 149.148)" style="font:normal normal normal 233.333px 'Arial'" >
    -0.65</text>
  <text x="0" y="0" stroke="transparent" fill="#000000" transform="matrix(0.05 0 0 0.05 289.963 162.435)" style="font:normal normal normal 233.333px 'Arial'" >
    -0.67 </text>
  <text x="0" y="0" stroke="transparent" fill="#0000ff" transform="matrix(0.05 0 0 0.05 319.796 162.435)" style="font:normal normal bold 233.333px 'Arial'" >
    N</text>
  <text x="0" y="0" stroke="transparent" fill="#000000" transform="matrix(0.05 0 0 0.05 328.221 162.435)" style="font:normal normal normal 233.333px 'Arial'" >
    (imido)</text>
  <text x="0" y="0" stroke="transparent" fill="#000000" transform="matrix(0.05 0 0 0.05 321.24 16.5346)" style="font:normal normal bold 200px 'Arial'" >
    1</text>
  <text x="0" y="0" stroke="transparent" fill="#000000" transform="matrix(0.05 0 0 0.05 224.573 16.5346)" style="font:normal normal bold 200px 'Arial'" >
    2</text>
  <text x="0" y="0" stroke="transparent" fill="#000000" transform="matrix(0.05 0 0 0.05 123.24 16.5346)" style="font:normal normal bold 200px 'Arial'" >
    3</text>
</svg>
