<svg width="160px" height="112px" viewBox="0 0 80 56" style="background-color: #ffffffff" xmlns="http://www.w3.org/2000/svg" xmlns:xlink="http://www.w3.org/1999/xlink" version="1.1" >
  <text x="0" y="0" stroke="transparent" fill="#000000" transform="matrix(0.05 0 0 0.05 33.8492 43.5903)" style="font:normal normal normal 200px 'Arial'" >
    Re</text>
  <text x="0" y="0" stroke="transparent" fill="#000000" transform="matrix(0.05 0 0 0.05 15.5325 36.507)" style="font:normal normal normal 200px 'Arial'" >
    N</text>
  <path stroke="transparent" fill="#000000" transform="matrix(0.05 0 0 0.05 -79 -12)" d="M 2069.23,944.318 L 2074.01,930.098 L 2225.44,980.939 L 2220.66,995.159 L 2069.23,944.318 Z " />
  <text x="0" y="0" stroke="transparent" fill="#000000" transform="matrix(0.05 0 0 0.05 15.5325 53.507)" style="font:normal normal normal 200px 'Arial'" >
    N</text>
  <path stroke="transparent" fill="#000000" transform="matrix(0.05 0 0 0.05 -79 -12)" d="M 2076.2,1195.71 L 2069.82,1182.14 L 2226.6,1108.44 L 2232.98,1122.02 L 2076.2,1195.71 Z " />
  <text x="0" y="0" stroke="transparent" fill="#000000" transform="matrix(0.05 0 0 0.05 36.3516 23.0486)" style="font:normal normal normal 200px 'Arial'" >
    O</text>
  <path stroke="transparent" fill="#000000" transform="matrix(0.05 0 0 0.05 -79 -12)" d="M 2429.29,927.973 L 2414.29,927.973 L 2414.29,743.139 L 2429.29,743.139 L 2429.29,927.973 Z " />
  <path stroke="transparent" fill="#000000" transform="matrix(0.05 0 0 0.05 -79 -12)" d="M 2355.34,927.973 L 2340.34,927.973 L 2340.34,743.139 L 2355.34,743.139 L 2355.34,927.973 Z " />
  <text x="0" y="0" stroke="transparent" fill="#000000" transform="matrix(0.05 0 0 0.05 58.0571 49.6111)" style="font:normal normal normal 200px 'Arial'" >
    NPh</text>
  <path stroke="transparent" fill="#000000" transform="matrix(0.05 0 0 0.05 -79 -12)" d="M 2541.39,1094.15 L 2545.45,1079.71 L 2705.89,1124.79 L 2701.83,1139.23 L 2541.39,1094.15 Z " />
  <path stroke="#000000" stroke-width="15" fill="transparent" transform="matrix(0.05 0 0 0.05 -79 -12)" d="M 1852.5,845.43 C 1733.89,845.43 1637.61,940.773 1637.61,1058.23 C 1637.61,1170.8 1738.83,1271.04 1852.5,1271.04 " />
  <text x="0" y="0" stroke="transparent" fill="#000000" transform="matrix(0.05 0 0 0.05 36.875 10.5)" style="font:normal normal bold 200px 'Arial'" >
    1</text>
</svg>
