<svg width="160px" height="112px"  viewBox="0 0 76 65" style="background-color: #ffffffff" xmlns="http://www.w3.org/2000/svg" xmlns:xlink="http://www.w3.org/1999/xlink" version="1.1" >
  <text x="0" y="0" stroke="transparent" fill="#000000" transform="matrix(0.05 0 0 0.05 33.5992 45.4653)" style="font:normal normal normal 200px 'Arial'" >
    Re</text>
  <text x="0" y="0" stroke="transparent" fill="#000000" transform="matrix(0.05 0 0 0.05 15.2825 38.382)" style="font:normal normal normal 200px 'Arial'" >
    N</text>
  <path stroke="transparent" fill="#000000" transform="matrix(0.05 0 0 0.05 -335 -9)" d="M 7184.23,921.818 L 7189.01,907.598 L 7340.44,958.439 L 7335.66,972.659 L 7184.23,921.818 Z " />
  <text x="0" y="0" stroke="transparent" fill="#000000" transform="matrix(0.05 0 0 0.05 15.2825 55.382)" style="font:normal normal normal 200px 'Arial'" >
    N</text>
  <path stroke="transparent" fill="#000000" transform="matrix(0.05 0 0 0.05 -335 -9)" d="M 7191.2,1173.21 L 7184.82,1159.64 L 7341.6,1085.94 L 7347.98,1099.52 L 7191.2,1173.21 Z " />
  <text x="0" y="0" stroke="transparent" fill="#000000" transform="matrix(0.05 0 0 0.05 33.4858 25.9722)" style="font:normal normal normal 200px 'Arial'" >
    O</text>
  <path stroke="transparent" fill="#000000" transform="matrix(0.05 0 0 0.05 -335 -9)" d="M 7492.12,906.146 L 7477.26,908.141 L 7469.78,852.423 L 7484.65,850.428 L 7492.12,906.146 Z " />
  <path stroke="transparent" fill="#000000" transform="matrix(0.05 0 0 0.05 -335 -9)" d="M 7477.17,794.71 L 7462.3,796.705 L 7454.83,740.987 L 7469.69,738.992 L 7477.17,794.71 Z " />
  <text x="0" y="0" stroke="transparent" fill="#000000" transform="matrix(0.05 0 0 0.05 36.3799 62.4653)" style="font:normal normal normal 200px 'Arial'" >
    NPh</text>
  <path stroke="transparent" fill="#000000" transform="matrix(0.05 0 0 0.05 -335 -9)" d="M 7492.32,1131.47 L 7507.32,1131.47 L 7507.32,1245.47 L 7492.32,1245.47 L 7492.32,1131.47 Z " />
  <path stroke="#000000" stroke-width="15" fill="transparent" transform="matrix(0.05 0 0 0.05 -335 -9)" d="M 6967.5,822.93 C 6848.89,822.93 6752.61,918.273 6752.61,1035.73 C 6752.61,1148.3 6853.83,1248.54 6967.5,1248.54 " />
  <text x="0" y="0" stroke="transparent" fill="#000000" transform="matrix(0.05 0 0 0.05 37.75 10.5)" style="font:normal normal bold 200px 'Arial'" >
    4</text>
  <text x="0" y="0" stroke="transparent" fill="#000000" transform="matrix(0.05 0 0 0.05 49.8892 30.0972)" style="font:normal normal normal 200px 'Arial'" >
    C</text>
  <path stroke="transparent" fill="#000000" transform="matrix(0.05 0 0 0.05 -335 -9)" d="M 7703.79,801.441 L 7716.4,809.564 L 7621.47,956.954 L 7608.86,948.832 L 7703.79,801.441 Z " />
  <text x="0" y="0" stroke="transparent" fill="#ff0000" transform="matrix(0.05 0 0 0.05 55.5433 53.9653)" style="font:normal normal normal 200px 'Arial'" >
    L</text>
  <text x="0" y="0" stroke="transparent" fill="#ff0000" transform="matrix(0.05 0 0 0.05 61.1048 55.5764)" style="font:normal normal normal 150px 'Arial'" >
    1</text>
  <path stroke="transparent" fill="#000000" transform="matrix(0.05 0 0 0.05 -335 -9)" d="M 7772.17,1126.75 L 7764.67,1139.74 L 7656.1,1077.06 L 7663.6,1064.07 L 7772.17,1126.75 Z " />
  <path stroke="transparent" fill="#000000" transform="matrix(0.05 0 0 0.05 -335 -9)" d="M 7669.53,679.057 L 7665.81,693.589 L 7627.71,683.843 L 7631.43,669.311 L 7669.53,679.057 Z " />
  <path stroke="transparent" fill="#000000" transform="matrix(0.05 0 0 0.05 -335 -9)" d="M 7593.33,659.564 L 7589.61,674.096 L 7551.51,664.35 L 7555.23,649.818 L 7593.33,659.564 Z " />
  <text x="0" y="0" stroke="transparent" fill="#000000" transform="matrix(0.05 0 0 0.05 66.0316 25.6973)" style="font:normal normal normal 200px 'Arial'" >
    O</text>
  <path stroke="transparent" fill="#000000" transform="matrix(0.05 0 0 0.05 -335 -9)" d="M 7982.84,616.026 L 7986.72,630.515 L 7869.22,662 L 7865.33,647.511 L 7982.84,616.026 Z " />
  <path stroke="transparent" fill="#000000" transform="matrix(0.05 0 0 0.05 -335 -9)" d="M 7998.68,675.141 L 8002.56,689.63 L 7885.06,721.115 L 7881.17,706.626 L 7998.68,675.141 Z " />
</svg>
