<svg width="160px" height="112px" viewBox="0 0 68 62" style="background-color: #ffffffff" xmlns="http://www.w3.org/2000/svg" xmlns:xlink="http://www.w3.org/1999/xlink" version="1.1" >
  <text x="0" y="0" stroke="transparent" fill="#000000" transform="matrix(0.05 0 0 0.05 33.5992 41.8403)" style="font:normal normal normal 200px 'Arial'" >
    Re</text>
  <text x="0" y="0" stroke="transparent" fill="#000000" transform="matrix(0.05 0 0 0.05 15.2825 34.757)" style="font:normal normal normal 200px 'Arial'" >
    N</text>
  <path stroke="transparent" fill="#000000" transform="matrix(0.05 0 0 0.05 -77 -85)" d="M 2024.23,2369.32 L 2029.01,2355.1 L 2180.44,2405.94 L 2175.66,2420.16 L 2024.23,2369.32 Z " />
  <text x="0" y="0" stroke="transparent" fill="#000000" transform="matrix(0.05 0 0 0.05 15.2825 51.757)" style="font:normal normal normal 200px 'Arial'" >
    N</text>
  <path stroke="transparent" fill="#000000" transform="matrix(0.05 0 0 0.05 -77 -85)" d="M 2031.2,2620.71 L 2024.82,2607.14 L 2181.6,2533.44 L 2187.98,2547.02 L 2031.2,2620.71 Z " />
  <text x="0" y="0" stroke="transparent" fill="#ff0000" transform="matrix(0.05 0 0 0.05 37.21 24.8403)" style="font:normal normal normal 200px 'Arial'" >
    L</text>
  <text x="0" y="0" stroke="transparent" fill="#ff0000" transform="matrix(0.05 0 0 0.05 42.7715 26.4514)" style="font:normal normal normal 150px 'Arial'" >
    1</text>
  <path stroke="transparent" fill="#000000" transform="matrix(0.05 0 0 0.05 -77 -85)" d="M 2347.32,2352.97 L 2332.32,2352.97 L 2332.32,2235.97 L 2347.32,2235.97 L 2347.32,2352.97 Z " />
  <text x="0" y="0" stroke="transparent" fill="#000000" transform="matrix(0.05 0 0 0.05 36.3799 58.8403)" style="font:normal normal normal 200px 'Arial'" >
    NPh</text>
  <path stroke="transparent" fill="#000000" transform="matrix(0.05 0 0 0.05 -77 -85)" d="M 2332.32,2578.97 L 2347.32,2578.97 L 2347.32,2692.97 L 2332.32,2692.97 L 2332.32,2578.97 Z " />
  <path stroke="#000000" stroke-width="15" fill="transparent" transform="matrix(0.05 0 0 0.05 -77 -85)" d="M 1807.5,2270.43 C 1688.89,2270.43 1592.61,2365.77 1592.61,2483.23 C 1592.61,2595.8 1693.83,2696.04 1807.5,2696.04 " />
  <text x="0" y="0" stroke="transparent" fill="#000000" transform="matrix(0.05 0 0 0.05 36.625 10.625)" style="font:normal normal bold 200px 'Arial'" >
    6</text>
  <text x="0" y="0" stroke="transparent" fill="#ff0000" transform="matrix(0.05 0 0 0.05 55.5433 33.3403)" style="font:normal normal normal 200px 'Arial'" >
    L</text>
  <text x="0" y="0" stroke="transparent" fill="#ff0000" transform="matrix(0.05 0 0 0.05 61.1048 34.9514)" style="font:normal normal normal 150px 'Arial'" >
    1</text>
  <path stroke="transparent" fill="#000000" transform="matrix(0.05 0 0 0.05 -77 -85)" d="M 2607.17,2346.04 L 2614.67,2359.03 L 2487.05,2432.71 L 2479.55,2419.72 L 2607.17,2346.04 Z " />
</svg>
